<?xml version="1.0" encoding="UTF-8"?>
<svg width="32" height="32" viewBox="0 0 32 32" fill="none" xmlns="http://www.w3.org/2000/svg">
  <defs>
    <linearGradient id="logoGradient" x1="0%" y1="0%" x2="100%" y2="100%">
      <stop offset="0%" style="stop-color:#3b82f6;stop-opacity:1" />
      <stop offset="100%" style="stop-color:#8b5cf6;stop-opacity:1" />
    </linearGradient>
  </defs>
  
  <!-- Shield background -->
  <path d="M16 2L26 6V14C26 20.5 21.5 26.5 16 30C10.5 26.5 6 20.5 6 14V6L16 2Z" fill="url(#logoGradient)"/>
  
  <!-- Inner shield -->
  <path d="M16 4L24 7V14C24 19.5 20.5 24.5 16 27C11.5 24.5 8 19.5 8 14V7L16 4Z" fill="white" fill-opacity="0.2"/>
  
  <!-- Lock icon -->
  <rect x="12" y="14" width="8" height="6" rx="1" fill="white"/>
  <path d="M14 14V12C14 10.9 14.9 10 16 10C17.1 10 18 10.9 18 12V14" stroke="white" stroke-width="1.5" fill="none"/>
  <circle cx="16" cy="17" r="1" fill="url(#logoGradient)"/>
</svg>